<?xml version="1.0" encoding="utf-8"?>
<!-- Generator: Adobe Illustrator 21.0.0, SVG Export Plug-In . SVG Version: 6.00 Build 0)  -->
<svg version="1.1" id="Layer_1" xmlns="http://www.w3.org/2000/svg" xmlns:xlink="http://www.w3.org/1999/xlink" x="0px" y="0px"
	 viewBox="0 0 319.8 199.9" style="enable-background:new 0 0 319.8 199.9;" xml:space="preserve">
<style type="text/css">
	.st0{fill:#0B6F0F;}
	.st1{fill:#AB0000;}
	.st2{fill:#FFFFFF;}
	.st3{fill:#F2F2F2;}
	.st4{fill:none;stroke:#AB0000;stroke-width:0.1249;stroke-miterlimit:10;}
</style>
<title>blue_robot</title>
<rect x="-0.1" class="st0" width="320" height="199.9"/>
<polygon class="st1" points="194.6,80.9 194.6,0 -0.1,0 -0.1,103.9 55.5,103.9 148.7,103.9 "/>
<polygon class="st2" points="194.6,103.9 176.6,103.9 55.6,164.5 55.6,199.9 319.8,199.9 319.8,103.9 "/>
<path class="st1" d="M224.1,195.3c0.5,0.6,1,1.3,1.5,2c-0.7,0.4-1.4,0.7-2.2,1.1c-0.5-0.8-1-1.6-1.5-2.4c-0.2-0.3-0.4-0.4-0.9-0.4
	c-0.8,0-1.5,0-2.3-0.1c-1.3-0.2-2.1-0.9-2.1-1.9c-0.1-1.7-0.1-3.4,0-5.1c0.1-1.3,1-2.1,2.5-2.2c1.3-0.1,2.7-0.1,4.1,0
	c1.7,0.1,2.6,1,2.6,2.4c0,1.5,0,3.1,0,4.6C225.8,194.1,225.5,194.5,224.1,195.3z M223.2,190.8c0-0.7,0-1.3,0-2c0-0.6-0.3-0.9-1-1
	s-1.4-0.1-2.1,0c-0.7,0.1-1,0.4-1,1c0,1.3,0,2.5,0,3.8c0,0.7,0.4,1,1.2,1.1c0.6,0,1.2,0,1.8,0c0.9-0.1,1.2-0.4,1.2-1.1
	C223.2,192,223.2,191.4,223.2,190.8z"/>
<path class="st1" d="M200.1,185.9c1.8,0,3.6,0,5.4,0c0.7,0,1.4,0.1,2,0.3c1,0.2,1.6,0.9,1.7,1.7c0.1,0.6,0.1,1.2,0,1.8
	c-0.1,1.1-0.8,1.9-2.1,2.3c0.9,1.2,1.7,2.3,2.6,3.5c-1,0-1.8,0-2.6,0c-0.2,0-0.4-0.2-0.5-0.3c-0.6-0.9-1.2-1.7-1.7-2.6
	c-0.3-0.4-0.6-0.7-1.2-0.6c-0.4,0-0.7,0-1.2,0c0,0.7,0,1.4,0,2.1c0,0.4,0,0.7,0,1c0,0.1-0.3,0.4-0.4,0.4c-0.7,0-1.3,0-2.1,0
	C200.1,192.3,200.1,189.1,200.1,185.9z M202.6,190.3c1,0,2,0,3,0c0.6,0,1-0.3,1.1-0.9c0.1-1-0.1-1.5-0.8-1.5
	c-1.1-0.1-2.2-0.1-3.3-0.2C202.6,188.6,202.6,189.4,202.6,190.3z"/>
<path class="st1" d="M234.3,186c0.9,0,1.7,0,2.5,0c0,0.2,0,0.4,0,0.6c0,2,0,4.1,0,6.1c0,1.9-1,2.7-3.3,2.8c-1.2,0-2.4,0-3.6-0.1
	c-1.4-0.2-2.2-0.9-2.2-2.1c-0.1-2.4,0-4.8,0-7.3c0.8,0,1.6,0,2.5,0c0,0.2,0,0.4,0,0.6c0,2,0,3.9,0,5.9c0,1,0.4,1.3,1.6,1.3
	c2.4,0,2.5-0.1,2.5-2c0-1.7,0-3.4,0-5.1C234.3,186.4,234.3,186.2,234.3,186z"/>
<path class="st1" d="M191.8,193.3c-0.2,0.6-0.4,1.2-0.5,1.8c-0.1,0.3-0.3,0.4-0.7,0.4c-0.6,0-1.3,0-2,0c1-3.2,2-6.3,2.9-9.5
	c1.2,0,2.4,0,3.7,0c0.1,0,0.3,0.1,0.4,0.3c1,3.1,2,6.1,3.1,9.3c-0.8,0-1.5,0-2.2,0c-0.1,0-0.3-0.2-0.4-0.3c-0.2-0.5-0.4-1-0.6-1.5
	c-0.1-0.1-0.3-0.3-0.5-0.4C193.9,193.3,192.9,193.3,191.8,193.3z M193.6,187.9c-0.1,0-0.1,0-0.2,0c-0.4,1.3-0.8,2.5-1.2,3.8
	c0.9,0,1.8,0,2.7,0C194.5,190.4,194.1,189.1,193.6,187.9z"/>
<path class="st1" d="M183.9,195.5c-0.9,0-1.7,0-2.5,0c0-3.4,0-6.8,0-10.3c-1.3,0-2.5,0-3.8,0c0-0.6,0.1-1.2,0.1-1.7
	c3.2,0,6.3,0,9.4,0c0,0.5,0.1,1.1,0.1,1.7c-1.1,0-2.2,0-3.3,0C183.9,188.6,183.9,192,183.9,195.5z"/>
<path class="st1" d="M238.6,185.8c0.9,0.1,1.7,0.1,2.5,0.2c0,2.6,0,5.1,0,7.7c1.9,0,3.7,0,5.6,0c0,0.6-0.1,1.2-0.1,1.7
	c-2.7,0-5.3,0-8,0C238.6,192.3,238.6,189.1,238.6,185.8z"/>
<path class="st1" d="M211.9,186.1c0.9,0,1.6,0,2.5,0c0,3.1,0,6.3,0,9.4c-0.8,0-1.6,0-2.5,0C211.9,192.4,211.9,189.3,211.9,186.1z"/>
<path class="st0" d="M252.5,183.6c2.4,0,4.8-0.1,7.2,0c1.6,0.1,2.5,0.9,2.5,2.3c0.1,2.4,0.1,4.9,0,7.3c0,1.4-1,2.3-2.8,2.3
	c-2.3,0.1-4.6,0-6.9,0C252.5,191.6,252.5,187.6,252.5,183.6z M255,193.8c1.2,0,2.4,0,3.5,0c0.8,0,1.1-0.4,1.1-1c0-2.1,0-4.3,0-6.4
	c0-0.6-0.3-1-1-1c-1.2-0.1-2.4,0-3.6,0C255,188.2,255,191,255,193.8z"/>
<path class="st0" d="M309.3,195.6c-0.9,0-1.7,0-2.5,0c-0.2,0-0.4-0.2-0.5-0.3c-1.1-1.6-2.1-3.3-3.2-5c-0.1-0.1-0.2-0.3-0.4-0.4
	c0,1.9,0,3.7,0,5.7c-0.9,0-1.7,0-2.6,0c0-3.1,0-6.3,0-9.5c0.8,0,1.7,0,2.5,0c0.2,0,0.4,0.3,0.5,0.4c1.1,1.6,2.1,3.3,3.2,4.9
	c0.1,0.2,0.2,0.3,0.3,0.4c0.1,0,0.1,0,0.2,0c0-0.2,0-0.4,0-0.6c0-1.5,0-3.1,0-4.6c0-0.4,0.2-0.6,0.7-0.5c0.6,0,1.2,0,1.9,0
	C309.3,189.2,309.3,192.4,309.3,195.6z"/>
<path class="st0" d="M297.5,186.1c0,0.7-0.1,1.2-0.1,1.8c-0.4,0-0.8,0-1.2,0c-1,0-2.1,0-3.1,0.1c-0.8,0.1-1.2,0.4-1.2,1
	c0,1.3,0,2.6,0,3.9c0,0.6,0.4,1,1.1,1c1,0.1,1.9,0,3,0c0-0.7,0-1.4,0-2.1c-0.5,0-1,0-1.6,0c0-0.6-0.1-1-0.1-1.6c1.4,0,2.8,0,4.2,0
	c0,1.8,0,3.6,0,5.5c-2.1,0-4.3,0.1-6.3,0c-1.8-0.1-2.6-0.9-2.7-2.3c-0.1-1.6-0.1-3.3,0-4.9c0.1-1.2,0.8-1.9,2.3-2.1
	C293.6,186.1,295.5,186.1,297.5,186.1z"/>
<path class="st0" d="M264.1,186.2c2.6,0,5.3,0,8,0c0,0.5,0.1,1.1,0.1,1.7c-1.9,0-3.7,0-5.5,0c0,0.8,0,1.5,0,2.2c1.4,0,2.9,0,4.3,0
	c0,0.5,0,1,0,1.6c-1.4,0-2.8,0-4.3,0c0,0.8,0,1.5,0,2.2c1.8,0,3.6,0,5.5,0c0,0.6-0.1,1.1-0.1,1.7c-2.7,0-5.3,0-8,0
	C264.1,192.5,264.1,189.3,264.1,186.2z"/>
<path class="st0" d="M273.8,195.6c0-0.6,0.1-1.1,0.1-1.7c0.9,0,1.7,0,2.5,0s1.6,0,2.4-0.1s1.2-0.4,1.2-0.9c0.1-0.5-0.3-1-1-1.1
	c-0.6-0.1-1.2-0.2-1.9-0.2c-2.5-0.3-3.8-1.8-3.3-3.6c0.3-1,1.2-1.5,2.4-1.7c0.4-0.1,0.9-0.1,1.4-0.1c1.4,0,2.8,0,4.3,0
	c0,0.6-0.1,1.1-0.1,1.7c-0.2,0-0.5,0-0.7,0c-1.2,0-2.4,0-3.7,0.1c-0.6,0-1.1,0.3-1.2,0.8s0.3,1,1,1.1c0.6,0.1,1.3,0.2,1.9,0.3
	c1.8,0.2,3,1,3.3,2.3c0.4,1.7-0.7,3-2.9,3.1C277.7,195.7,275.8,195.6,273.8,195.6z"/>
<path class="st0" d="M284.7,186.2c0.8,0,1.6,0,2.5,0c0,3.1,0,6.2,0,9.4c-0.8,0-1.6,0-2.5,0C284.7,192.5,284.7,189.4,284.7,186.2z"/>
<ellipse class="st3" cx="125.3" cy="105.1" rx="51.1" ry="51.4"/>
<polygon class="st2" points="55.6,103.9 55.6,150.4 148.7,103.9 "/>
<polygon class="st1" points="194.6,103.9 194.6,94.9 176.6,103.9 "/>
<polygon class="st1" points="292.9,45.8 287.3,34.6 194.6,80.9 194.6,94.9 "/>
<polygon class="st1" points="32.2,162.1 37.8,173.3 55.6,164.4 55.6,150.4 "/>
<polygon class="st0" points="148.7,103.9 55.6,150.4 55.6,164.4 176.6,103.9 194.6,94.9 194.6,80.9 "/>
<polygon class="st1" points="303.7,66.7 298.1,55.6 205.4,101.9 205.4,115.9 "/>
<polygon class="st1" points="43,183.1 48.6,194.2 66.4,185.3 66.4,171.4 "/>
<polygon class="st0" points="159.5,124.9 66.4,171.4 66.4,185.3 187.4,124.9 205.4,115.9 205.4,101.9 "/>
<polygon class="st1" points="281.2,23.7 275.7,12.5 183,58.8 183,72.8 "/>
<polygon class="st1" points="20.6,140 26.1,151.2 44,142.3 44,128.3 "/>
<polygon class="st0" points="137,81.8 44,128.3 44,142.3 165,81.8 183,72.8 183,58.8 "/>
<line class="st4" x1="269.1" y1="0" x2="319.8" y2="98"/>
<line class="st4" x1="0.1" y1="100.1" x2="51.6" y2="199.8"/>
</svg>
