<?xml version="1.0" encoding="utf-8"?>
<!-- Generator: Adobe Illustrator 21.0.0, SVG Export Plug-In . SVG Version: 6.00 Build 0)  -->
<svg version="1.1" id="Layer_1" xmlns="http://www.w3.org/2000/svg" xmlns:xlink="http://www.w3.org/1999/xlink" x="0px" y="0px"
	 width="2560px" height="1440px" viewBox="0 0 2560 1440" enable-background="new 0 0 2560 1440" xml:space="preserve">
<g>
	<polygon fill="none" stroke="#FFFFFF" stroke-width="10" stroke-miterlimit="10" points="842,774 428.3,937 80.3,660.3 146,220.5 
		559.7,57.5 907.7,334.2 	"/>
	<polygon fill="none" stroke="#FFFFFF" stroke-width="8.6433" stroke-miterlimit="10" points="911.8,767 587,895 313.7,677.7 
		365.3,332.4 690.1,204.4 963.4,421.7 	"/>
	<polygon fill="none" stroke="#FFFFFF" stroke-width="7.2866" stroke-miterlimit="10" points="981.6,760 745.6,853 547.1,695.1 
		584.5,444.2 820.5,351.2 1019.1,509.1 	"/>
	<polygon fill="none" stroke="#FFFFFF" stroke-width="5.93" stroke-miterlimit="10" points="1051.4,753 904.2,811 780.4,712.5 
		803.8,556.1 950.9,498.1 1074.7,596.5 	"/>
	<polygon fill="none" stroke="#FFFFFF" stroke-width="4.5733" stroke-miterlimit="10" points="1121.2,746 1062.9,769 1013.8,729.9 
		1023,667.9 1081.4,645 1130.4,684 	"/>
	<polygon fill="none" stroke="#FFFFFF" stroke-width="3.2166" stroke-miterlimit="10" points="1191,739 1221.5,727 1247.2,747.4 
		1242.3,779.8 1211.8,791.8 1186.1,771.4 	"/>
	<polygon fill="none" stroke="#FFFFFF" stroke-width="1.8599" stroke-miterlimit="10" points="1260.8,732 1380.1,684.9 
		1480.5,764.8 1461.6,891.7 1342.2,938.7 1241.8,858.9 	"/>
	<polygon fill="none" stroke="#FFFFFF" stroke-width="0.5033" stroke-miterlimit="10" points="1680.8,1003.5 1472.6,1085.6 
		1297.5,946.3 1330.6,725 1538.7,642.9 1713.9,782.2 	"/>
</g>
<path d="M1395,815c62.2,5.8,86.8-212.7,182-219c72.1-4.7,166.4,113.5,168,229c2.5,180.5-222.7,262-194,343
	c29.9,84.4,319.8,124.1,505-17c208.8-159,170.2-460.5,164-509c-10.2-80-43.3-337.8-246-414c-188.6-70.9-430.8,50.6-492,225
	c-46.3,131.7,6.4,305.9,69,315c68.5,10,187.2-172,141-254c-46.7-82.8-276.1-88.6-351,33C1278.2,649,1342.9,810.1,1395,815z"/>
<path fill="none" stroke="#000000" stroke-width="9" stroke-miterlimit="10" d="M339.5,81.5l-171,367l430-310c0,0-341,438-354,456
	s613-461,613-461s-886,891-830,858s1290-750,1290-745s-1052,955-1044,914s122-762,133-745s453,488,547,567s-73-668-73-668l498,339
	l-47-480c0,0,922-313,709,428s-232-137-232-137"/>
<rect x="698.5" y="367.5" width="29.5" height="90.5"/>
<rect x="755.5" y="424.5" width="29.5" height="90.5"/>
<rect x="812.5" y="481.5" width="29.5" height="90.5"/>
<rect x="869.5" y="538.5" width="29.5" height="90.5"/>
<rect x="926.5" y="595.5" width="29.5" height="90.5"/>
<path fill="none" stroke="#FFFFFF" stroke-width="11.0893" stroke-miterlimit="10" d="M1847.5,498.9c0,0-145,419,0,501
	s227-566.3,204.5-718.9"/>
</svg>
