<?xml version="1.0" encoding="utf-8"?>
<!-- Generator: Adobe Illustrator 21.0.0, SVG Export Plug-In . SVG Version: 6.00 Build 0)  -->
<svg version="1.1" xmlns="http://www.w3.org/2000/svg" xmlns:xlink="http://www.w3.org/1999/xlink" x="0px" y="0px"
	 viewBox="0 0 2556 1660" style="enable-background:new 0 0 2556 1660;" xml:space="preserve">
<style type="text/css">
	.st0{fill:#FFFF00;}
	.st1{fill:#212121;}
	.st2{font-family:'MyriadPro-Bold';}
	.st3{font-size:150px;}
	.st4{fill:#FFFFFF;}
	.st5{font-size:36px;}
	.st6{letter-spacing:9;}
	.st7{fill:none;stroke:#212121;stroke-width:4;}
</style>
<g id="Entrophy">
	<rect id="yellow-rectangle" x="732" y="385" class="st0" width="1824" height="462"/>
	<g id="slanted-yellow">
		<polygon class="st0" points="67,1308.9 0,1308.9 182,0 249,0 		"/>
		<polygon class="st0" points="211,1308.9 144,1308.9 326,0 393,0 		"/>
		<polygon class="st0" points="355,1308.9 288,1308.9 470,0 537,0 		"/>
		<polygon class="st0" points="499,1308.9 432,1308.9 614,0 681,0 		"/>
		<polygon class="st0" points="643,1308.9 576,1308.9 758,0 825,0 		"/>
		<polygon class="st0" points="787,1308.9 720,1308.9 902,0 969,0 		"/>
		<polygon class="st0" points="931,1308.9 864,1308.9 1046,0 1113,0 		"/>
		<polygon class="st0" points="1075,1308.9 1008,1308.9 1190,0 1257,0 		"/>
		<polygon class="st0" points="1219,1308.9 1152,1308.9 1334,0 1401,0 		"/>
		<polygon class="st0" points="1363,1308.9 1296,1308.9 1478,0 1545,0 		"/>
		<polygon class="st0" points="1507,1308.9 1440,1308.9 1622,0 1689,0 		"/>
		<polygon class="st0" points="1651,1308.9 1584,1308.9 1766,0 1833,0 		"/>
		<polygon class="st0" points="1795,1308.9 1728,1308.9 1910,0 1977,0 		"/>
		<polygon class="st0" points="1939,1308.9 1872,1308.9 2054,0 2121,0 		"/>
		<polygon class="st0" points="2083,1308.9 2016,1308.9 2198,0 2265,0 		"/>
		<polygon class="st0" points="2227,1308.9 2160,1308.9 2342,0 2409,0 		"/>
		<polygon class="st0" points="2371,1308.9 2304,1308.9 2486,0 2553,0 		"/>
	</g>
	<text transform="matrix(1 0 0 1 1475.2729 651.2295)" class="st1 st2 st3">Entropy fan</text>
	<rect x="1246" y="493" class="st1" width="1058" height="54"/>
	<text transform="matrix(1 0 0 1 1278.2729 529.2294)" class="st4 st2 st5 st6">Did you know that George is a</text>
	<g id="Black-Dot">
		<circle class="st1" cx="350.3" cy="1241.2" r="23.8"/>
		<circle class="st1" cx="260.8" cy="1008.7" r="23.8"/>
		<circle class="st1" cx="350.3" cy="1008.7" r="23.8"/>
		<circle class="st1" cx="260.8" cy="1086.2" r="23.8"/>
		<circle class="st1" cx="350.3" cy="1086.2" r="23.8"/>
		<circle class="st1" cx="260.8" cy="1163.7" r="23.8"/>
		<circle class="st1" cx="350.3" cy="1163.7" r="23.8"/>
		<circle class="st1" cx="260.8" cy="1241.2" r="23.8"/>
	</g>
	<text transform="matrix(1 0 0 1 591.5454 317.2565)" class="st7 st2 st3">Trust your local water ?</text>
	
		<image style="overflow:visible;enable-background:new    ;" width="753" height="1035" xlink:href="carlin.png"  transform="matrix(0.921 0 0 0.921 517.25 353.3914)">
	</image>
	<g id="outline-of-carlin">
		<path class="st1" d="M801.6,378.1c8,0,14.4,1.3,18.6,4.3c8,5.8,23.4,15.7,27.3,15.7c0.1,0,0.1,0,0.2,0c0,0,0.1,0,0.1,0
			c3.8,0,19.2,23.3,23.1,34.3c4,11,6,28,8.7,29c0.2,0.1,0.5,0.1,0.8,0.1c1.5,0,4.1-0.9,6.7-0.9c3.1,0,6.2,1.3,7.9,7.2
			c3.3,11.7-0.1,32.9,3.4,39.8c3.6,6.9-1.8,31.6-10.8,37.9c1,11.7,4.3,17.7,5,23.3c0.7,5.7,10.3,31.7,24,36
			c13.7,4.3,25.7,7.5,25.7,7.5s12,14.1,46.2,25.2c31.5,10.2,65.5,25.1,82.8,42.7c10.3,10.5,44.1,67.6,51.7,130
			c7.6,62.4,15.5,98.2,21.2,124.8c5.7,26.7,16.8,70.3,21.5,79.3c4.7,9-4.1,52.5-19.7,70.7c-14,16.3-45.6,18.1-60.3,18.1
			c-4.2,0-7-0.1-7.6-0.1c-2.7,0-10.8,58.8-8.5,74.5c2.3,15.7-1.5,76.2-2.8,86.2c-1.3,10-0.5,43.1-0.5,43.1h-458l14.7-132l30.7-439.3
			c0,0,17.3-76.3,60-84.1c42.7-7.8,35.3-12.4,35.3-12.4s-13.2-38.7-30.7-56.7c-16.7-17.2-17.7-26.5-22.7-35.2s-38.2-57.2-21.7-87.8
			c16.2-30,52.7-66.8,83.3-74.2C774,381,789.6,378.1,801.6,378.1 M801.6,363.1c-11.8,0-27,2.3-47.8,7.3c-35.3,8.5-75,48.2-93,81.6
			c-8.5,15.8-8.5,36,0.1,59.8c6.3,17.4,15.6,32.5,20.1,39.8c0.7,1.2,1.4,2.2,1.7,2.8c0.9,1.6,1.8,3.5,2.7,5.7
			c3.4,7.5,8,17.8,22.1,32.4c9,9.3,17.6,27,22.9,39.7c-4.3,1.1-10.5,2.5-19.5,4.2c-13,2.4-25,9.4-35.7,21
			c-7.8,8.4-14.9,19.2-21.1,32.2C643.9,711,639.2,731.2,639,732l-0.3,1.1l-0.1,1.2l-30.6,439L593.4,1305l-1.9,16.7h16.8h458h15.4
			l-0.4-15.4c-0.3-12.4-0.5-34.3,0.4-40.8c1.2-8.9,5.5-72,2.8-90.4c-1.4-9.2,2.3-41,5.1-57.2c23-0.4,52.1-5.1,67.8-23.3
			c11.5-13.4,17.8-33.9,20.6-44.9c3.4-13.7,6.3-32.1,1-42.4c-3-5.8-13.3-43.5-20.1-75.5l-0.8-4c-5.5-25.7-13-60.8-20.1-119.6
			c-8-65.8-43.2-125.9-55.9-138.7c-21.2-21.5-60-37.1-88.9-46.4c-27.3-8.8-38.3-19.6-39.4-20.7l-3-3.8l-4.5-0.9
			c-0.1,0-11.8-3.1-25-7.3c-0.8-0.3-4.1-2.8-8.1-10c-3.4-6.2-5.3-12.1-5.6-13.6c-0.4-3.4-1.3-6.4-2.2-9.4c-0.6-2.2-1.3-4.4-1.8-7
			c4.8-6.7,7.5-14.8,8.8-19.9c1.8-7,4.1-19.9-0.2-29.1c-0.5-2.2-0.5-8.2-0.5-12.3c0-8.3,0-17.7-2.2-25.4
			c-2.9-10.2-10-16.7-19.3-17.9c-0.1-0.2-0.1-0.4-0.1-0.7c-1.3-5.7-2.8-12.1-4.9-17.8c-2.7-7.4-8.6-17.5-13.3-24.4
			c-9.1-13.5-14.9-18.8-22.1-19.6c-3.5-1.6-12.6-7.1-20.8-13C822.3,365.4,813.4,363.1,801.6,363.1L801.6,363.1z"/>
	</g>
</g>
<g id="Layer_2">
</g>
</svg>
